<svg fill="none" height="103" viewBox="0 0 950 103" width="950" xmlns="http://www.w3.org/2000/svg"><path d="m20.3662 20.9542c-5.8379 0-10.52733-.3828-17.2744-1.3877-2.918948-.4306-4.11524 3.3496-1.05274 4.7373 6.98633 3.1104 10.57524 5.9815 11.00584 17.8965v17.0352c0 14.2119-3.54099 17.2265-11.05369 20.5761-3.0625 1.3877-1.86621 5.168 1.05274 4.7374 6.74707-1.0049 11.43655-1.3877 17.22655-1.3877 6.3164 0 11.3887.2871 18.6621 1.3877 2.919.4306 4.1153-3.3497 1.0528-4.7374-8.2784-3.7324-12.4893-6.3642-12.4893-20.5761v-4.6895c0-12.7763 8.709-20.7197 20.4805-20.7197 3.8759 0 5.79.957 8.039.9092 2.1533-.0479 3.9239-2.2969 3.9239-7.7041 0-4.8809-1.6749-7.3692-6.0772-7.3692-11.4844 0-18.4228 6.6514-23.9736 14.4991-1.9141 2.7753-4.3545 1.6269-3.0625-1.627 1.0527-2.584 1.2441-5.2158 1.2441-7.417 0-2.584-2.1533-4.1631-6.5557-4.1631zm115.6568 42.1573c1.005-4.0196-4.498-5.4073-6.125-.9092-3.253 8.9482-9.953 14.6904-19.523 14.6904-12.0586 0-18.3271-4.6416-18.4707-25.1221 4.0674-.0957 9.4747-.2392 13.0637-.2392h23.638c4.69 0 5.743-2.8711 5.743-6.4121 0-2.4883-.862-6.2686-.862-9.1397 0-5.4551 1.053-9.5224 3.541-11.6279 2.154-1.8184.527-5.4551-2.775-4.4502-2.68.8613-5.694.8613-8.518.8613-4.833 0-12.106-1.1006-17.992-1.1006-18.9012 0-34.4051 5.503-34.4051 31.6299 0 27.3233 15.5039 33.1611 34.1181 33.1611 16.03 0 24.787-6.3642 28.567-21.3417zm-17.8-18.9014c-5.264 0-18.5668.0478-26.0316-.1914 1.292-14.0684 6.6992-17.2266 15.6476-17.2744 5.886 0 10.001 1.1484 13.925 5.5986 5.263 6.0293 3.11 11.8672-3.541 11.8672zm56.13 24.9306c9.091 0 16.03-4.2109 18.614-4.2109 1.34 0 2.345.957 2.345 2.3447 0 2.7754-4.211 4.3067-11.628 5.168-18.471 2.1055-27.946 6.9863-27.946 15.169 0 8.9003 7.369 14.6905 31.343 14.6905 27.85 0 39.765-8.6613 39.765-21.3898 0-8.9961-7.369-14.499-7.369-24.3564v-11.6758c0-14.2119 3.541-17.2266 11.053-20.5762 3.063-1.3877 1.866-5.1679-1.052-4.7373-6.748 1.0049-11.437 1.3877-17.275 1.3877h-1.531c-7.656 0-16.126-1.292-26.127-1.292-14.068 0-26.414 5.2159-26.414 15.0733 0 3.3974 2.105 6.6035 2.105 10.7187 0 3.3018-2.584 6.5078-2.584 10.001 0 9.7617 7.848 13.6855 16.701 13.6855zm5.981-9.1396c-5.024 0-7.848-2.1055-7.848-5.5508 0-3.4931 4.211-6.7471 4.211-10.8623 0-3.0625-.383-5.8379-.383-7.6562 0-5.8379 3.685-9.5225 12.49-9.5225 12.058 0 16.221 2.6318 16.221 17.6572v12.25c0 10.5752 8.949 18.5186 8.949 25.8877 0 5.7422-4.451 8.4698-17.897 8.4698-19.428 0-22.921-1.3399-22.921-5.2159 0-2.5361 2.154-4.5459 12.729-6.2207 9.379-1.4834 16.221-4.3066 16.221-11.9629 0-3.9716-2.392-9.4746-9.857-9.4746-3.35 0-7.895 2.2012-11.915 2.2012zm128.529 3.1104c1.005-4.0196-4.498-5.4073-6.125-.9092-3.254 8.9482-9.953 14.6904-19.523 14.6904-12.059 0-18.327-4.6416-18.471-25.1221 4.068-.0957 9.475-.2392 13.064-.2392h23.638c4.69 0 5.742-2.8711 5.742-6.4121 0-2.4883-.861-6.2686-.861-9.1397 0-5.4551 1.053-9.5224 3.541-11.6279 2.153-1.8184.527-5.4551-2.775-4.4502-2.68.8613-5.695.8613-8.518.8613-4.833 0-12.106-1.1006-17.992-1.1006-18.901 0-34.405 5.503-34.405 31.6299 0 27.3233 15.504 33.1611 34.118 33.1611 16.03 0 24.787-6.3642 28.567-21.3417zm-17.801-18.9014c-5.263 0-18.566.0478-26.031-.1914 1.292-14.0684 6.699-17.2266 15.648-17.2744 5.885 0 10.001 1.1484 13.925 5.5986 5.263 6.0293 3.11 11.8672-3.542 11.8672zm54.264-23.2559c-5.838 0-10.527-.3828-17.274-1.3877-2.919-.4306-4.115 3.3496-1.053 4.7373 7.513 3.3496 11.054 6.3643 11.054 20.5762v14.3555c0 14.2119-3.541 17.2265-11.054 20.5761-3.062 1.3877-1.866 5.168 1.053 4.7374 6.747-1.0049 11.388-1.3877 17.226-1.3877 5.12 0 9.284.4785 15.313 1.3877 2.919.4306 4.115-3.3497 1.053-4.7374-6.413-2.871-9.14-6.3642-9.14-20.5761v-2.3448c0-17.4179 13.542-28.0888 23.734-28.0888 5.982 0 8.805 2.7754 8.805 7.5127 0 5.1201-3.158 13.3506-3.158 28.6631v.0478c0 9.4746-3.637 12.2979-9.188 14.7861-3.062 1.3877-1.866 5.168 1.053 4.7374 6.029-.9092 10.192-1.3877 15.312-1.3877 5.791 0 10.48.3828 17.179 1.3877 2.919.4306 4.115-3.3497 1.053-4.7374-7.226-3.206-10.767-6.125-11.054-18.9013.287-11.0537 3.637-19.2363 3.637-25.6006 0-11.1494-7.848-15.6475-16.7-15.6475-13.59 0-22.873 5.4073-28.281 13.0635-1.914 2.7754-4.354 1.627-3.062-1.6269.861-2.1534 1.244-4.2588 1.244-6.0293 0-2.584-2.153-4.1153-6.556-4.1153zm152.79 58.8574c-7.512-3.3496-11.054-6.3642-11.054-20.5761v-33.4961c0-14.2119 3.542-17.22658 11.054-20.57619 3.063-1.3877 1.866-5.16797074-1.053-4.737307-6.316.957027-10.862 1.339847-16.221 1.387697-5.455-.04785-10.097-.38281-16.605-1.387697-2.919-.43066374-4.115 3.349607-1.052 4.737307 4.067 1.81836 6.125 3.68457 8.661 7.46489 2.057 3.0625 2.679 5.5507 2.679 7.5126 0 1.1006-.526 1.6749-1.722 1.6749-2.919 0-8.901-2.1534-20.576-2.1534-14.069 0-26.415 5.8858-26.415 17.0352 0 5.0723 2.728 9.8574 2.728 15.9824 0 5.3594-3.206 10.5752-3.206 16.1738 0 11.1016 7.848 15.5996 16.7 15.5996 13.59 0 22.586-5.5986 28.28-13.0156 1.723-2.249 3.685-1.1484 3.063 1.627-.718 3.3017-1.148 5.5029-1.148 7.3213 0 2.4404 3.206 2.7754 7.56 2.7754 5.838 0 10.527.3828 17.274 1.3877 2.919.4306 4.116-3.3497 1.053-4.7374zm-57.948-11.9628c0-5.503 4.833-10.5752 4.833-17.0352 0-5.168-1.005-9.8574-1.005-12.9199 0-6.9864 3.685-11.4844 12.489-11.4844 12.011 0 16.174 2.6797 16.174 17.7051v3.1582c0 17.3701-13.494 28.041-23.686 28.041-5.982 0-8.805-2.7754-8.805-7.4648zm136.281-4.7373c1.005-4.0196-4.498-5.4073-6.125-.9092-3.254 8.9482-9.953 14.6904-19.523 14.6904-12.059 0-18.327-4.6416-18.471-25.1221 4.067-.0957 9.475-.2392 13.064-.2392h23.638c4.69 0 5.742-2.8711 5.742-6.4121 0-2.4883-.861-6.2686-.861-9.1397 0-5.4551 1.053-9.5224 3.541-11.6279 2.153-1.8184.526-5.4551-2.775-4.4502-2.68.8613-5.695.8613-8.518.8613-4.833 0-12.106-1.1006-17.992-1.1006-18.901 0-34.405 5.503-34.405 31.6299 0 27.3233 15.504 33.1611 34.118 33.1611 16.03 0 24.787-6.3642 28.567-21.3417zm-17.801-18.9014c-5.263 0-18.566.0478-26.031-.1914 1.292-14.0684 6.699-17.2266 15.648-17.2744 5.885 0 10.001 1.1484 13.924 5.5986 5.264 6.0293 3.111 11.8672-3.541 11.8672zm54.312-23.2559c-5.838 0-10.527-.3828-17.274-1.3877-2.919-.4306-4.116 3.3496-1.053 4.7373 6.986 3.1104 10.575 5.9815 11.006 17.8965v17.0352c0 14.2119-3.541 17.2265-11.054 20.5761-3.063 1.3877-1.866 5.168 1.053 4.7374 6.747-1.0049 11.436-1.3877 17.226-1.3877 6.317 0 11.389.2871 18.662 1.3877 2.919.4306 4.116-3.3497 1.053-4.7374-8.278-3.7324-12.489-6.3642-12.489-20.5761v-4.6895c0-12.7763 8.709-20.7197 20.48-20.7197 3.876 0 5.79.957 8.039.9092 2.154-.0479 3.924-2.2969 3.924-7.7041 0-4.8809-1.675-7.3692-6.077-7.3692-11.484 0-18.423 6.6514-23.974 14.4991-1.914 2.7753-4.354 1.6269-3.062-1.627 1.053-2.584 1.244-5.2158 1.244-7.417 0-2.584-2.153-4.1631-6.556-4.1631zm60.867 62.1114c.861-.8614 1.723-2.6319 3.35-4.1153 1.579-1.4355 3.062-2.2969 3.924-3.2539 1.722-1.8183 1.722-3.541 0-5.3594-.862-.957-2.584-1.914-3.924-3.3496-1.531-1.6269-2.441-3.206-3.35-4.1152-1.77-1.7227-3.589-1.7227-5.359 0-1.005 1.0049-1.771 2.6797-3.446 4.1152-1.674 1.4356-3.158 2.584-3.923 3.3496-1.819 1.8184-1.675 3.3975 0 5.3594.813.957 2.44 1.7705 3.923 3.2539 1.723 1.6748 2.393 3.0625 3.446 4.1153 1.818 1.7705 3.589 1.8183 5.359 0zm70.246-39.9561-1.627 2.249c-1.005 1.4356-1.962 2.2012-3.158 2.2012-1.1 0-2.249-.4307-4.45-2.7275l-7.369-7.7041c-2.776-2.8711-3.541-4.0196-3.589-6.0772-.048-2.9668 3.254-4.8809 6.268-5.7422 3.781-1.1006 3.254-5.5986 0-5.5986-6.364 0-11.819 1.292-18.183 1.292-6.795 0-12.011-.4785-19.045-1.292-3.637-.4307-3.685 3.9717-1.244 4.8808 6.555 2.3926 9.57 4.7852 17.944 13.3985l5.982 6.1728c4.689 4.833 3.923 8.709-1.532 15.0254l-10.814 12.5371c-5.407 6.2207-8.566 6.4121-11.485 7.5606-3.158 1.1963-2.775 5.3594 1.005 5.2637 6.556-.1436 10.48-1.3877 15.074-1.3877 5.838 0 10.479 1.2919 16.987 1.2919 3.158 0 3.206-5.0244 0-5.5986-3.78-.6699-7.274-1.8183-8.183-5.2637-.765-2.7753-.717-5.455 4.403-12.5849l1.483-2.0098c1.005-1.4355 1.962-2.2012 3.158-2.2012 1.101 0 2.249.4307 4.45 2.7276l7.178 7.5127c2.776 2.9189 3.493 4.0195 3.541 6.0771.048 2.9668-3.206 4.8809-6.221 5.7422-3.78 1.1006-3.253 5.5986 0 5.5986 6.173 0 11.485-1.2919 17.658-1.2919 6.938 0 12.345.4306 19.571 1.2919 3.637.4307 3.685-3.9716 1.244-4.8808-6.556-2.3926-9.618-4.6416-17.944-13.3984l-5.79-6.0293c-4.259-4.4502-3.589-8.7569 1.196-14.5948l10.862-13.1592c5.168-6.3164 8.518-6.4121 11.485-7.5605 3.11-1.1963 2.775-5.3594-1.005-5.2637-6.556.1436-10.527 1.3877-15.121 1.3877-5.647 0-10.145-1.292-16.461-1.292-3.158 0-3.206 5.0244 0 5.5987 3.732.6699 7.273 1.8183 8.182 5.2636.718 2.7754.766 5.3594-4.45 12.585zm85.463 24.165c0 2.7754-4.211 4.3067-11.628 5.168-18.47 2.1055-27.945 6.9863-27.945 15.169 0 8.9003 7.369 14.6905 31.343 14.6905 27.849 0 39.764-8.6613 39.764-21.3898 0-8.9961-7.369-14.499-7.369-24.3564v-11.6758c0-14.2119 3.541-17.2266 11.054-20.5762 3.062-1.3877 1.866-5.1679-1.053-4.7373-6.747 1.0049-11.436 1.3877-17.274 1.3877-6.173.1436-8.566 1.7705-8.566 6.7471 0 7.0342.479 13.2549.67 16.7002l.718 11.915c.622 10.5752 8.948 18.5186 8.948 25.8877 0 5.7422-4.45 8.4698-17.896 8.4698-19.428 0-22.921-1.3399-22.921-5.2159 0-2.5361 2.153-4.5459 12.728-6.2207 9.379-1.4834 16.222-4.3066 16.222-11.9629 0-3.8281-2.393-9.1396-9.379-9.1396-3.349 0-7.082 1.8662-10.479 1.8662-5.025 0-7.848-2.1055-7.848-5.5508 0-3.4931 3.924-6.5556 4.546-14.5469l.861-10.5273c.527-6.4121-2.344-8.4219-8.47-8.4219h-1.626c-5.503 0-9.954-.4785-16.318-1.3877-2.919-.4306-4.067 3.3496-1.053 4.7373 6.987 3.1582 10.289 8.7569 10.289 16.8438 0 5.79-3.063 10.3359-3.063 14.3076 0 9.7617 7.848 13.6855 16.7 13.6855 8.183 0 14.404-4.2109 16.7-4.2109 1.34 0 2.345.957 2.345 2.3447zm113.313-38.042c2.057-2.3447 2.919-4.498 2.919-5.9814s-1.245-2.2969-4.116-2.2969h-45.889c-3.111 0-6.412.0479-9.379-.9092-3.589-1.1005-5.407 2.9668-3.015 4.9766 3.685 3.0625 4.355 5.8379 4.355 11.0537 0 4.1631-.766 9.4268-1.388 13.1592-.67 3.9717 4.689 5.0723 5.599 1.1484 2.105-9.1396 4.833-13.8769 8.517-17.1787 5.12-4.5937 10.862-6.2685 16.365-6.2685 4.786 0 6.078.6699 6.078 1.8662s-.527 2.584-4.499 7.1777l-33.543 38.9033c-2.058 2.3448-2.919 4.4981-2.919 5.9815s1.244 2.2969 4.115 2.2969h49.718c3.11 0 6.412-.0479 9.379.9091 3.588 1.1006 5.407-2.9668 3.014-4.9765-3.972-3.3018-4.354-7.1299-4.354-13.4463 0-4.9287.622-11.1973 1.387-15.5518.67-3.6367-4.641-5.2636-5.55-1.3877-2.393 10.4795-5.121 15.791-8.566 19.8106-5.742 6.6992-13.398 8.6611-20.193 8.6611-4.785 0-6.077-.6699-6.077-1.8662s.526-2.584 4.498-7.1777z" fill="#00f"/></svg>